<svg width="107" height="32" viewBox="0 0 149 45" fill="none" xmlns="http://www.w3.org/2000/svg">
    <g clip-path="url(#clip0_4136_20056)">
        <path
            d="M144.335 41.3016L114.425 44.9318C111.544 45.2742 108.869 43.2194 108.526 40.3427L104.89 10.4797C104.547 7.603 106.605 4.93177 109.486 4.5893L139.396 0.959163C142.277 0.616697 144.953 2.67149 145.296 5.5482L148.931 35.4112C149.274 38.2879 147.216 40.8907 144.335 41.3016Z"
            fill="#FF7524"></path>
        <path
            d="M75.4602 37.5344L48.2945 44.3837C45.4819 45.0686 42.6006 43.3563 41.846 40.5481L34.986 13.4248C34.3 10.6166 36.015 7.73987 38.8276 6.98645L65.9934 0.137133C68.806 -0.547799 71.6872 1.16453 72.4418 3.97275L79.3018 31.096C79.9878 33.9728 78.2728 36.8495 75.4602 37.5344Z"
            fill="#FF7524"></path>
        <path
            d="M101.048 42.6027L74.9801 37.6027C72.0989 37.0547 70.2467 34.2465 70.7955 31.4383L75.8033 5.41089C76.3521 2.53417 79.1647 0.684859 81.9773 1.2328L108.045 6.2328C110.927 6.78075 112.779 9.58897 112.23 12.3972L107.222 38.4246C106.673 41.3013 103.929 43.1506 101.048 42.6027Z"
            fill="#FF7524"></path>
        <path
            d="M33.9572 42.5342L5.28223 42.3287C2.33241 42.3287 0 39.9315 0 36.9863L0.205801 8.28765C0.205801 5.34244 2.60681 3.01367 5.55663 3.01367L34.3002 3.21915C37.25 3.21915 39.5824 5.61641 39.5824 8.56162L39.3766 37.2603C39.308 40.2055 36.907 42.6027 33.9572 42.5342Z"
            fill="#FF7524"></path>
        <path
            d="M100.225 10.684C99.6078 10.547 98.9904 10.958 98.8532 11.5744L96.1092 24.9306C95.4232 27.5333 92.8849 29.2457 90.2095 28.7662C87.5341 28.2183 85.8191 25.6155 86.2307 22.9443L88.9747 9.58812C89.1119 8.97168 88.7003 8.35524 88.0829 8.21826L81.9775 6.98538C81.3601 6.84839 80.7427 7.25935 80.6055 7.87579L78.0673 20.2046L77.9987 20.6155C76.7638 27.8073 81.4287 34.7251 88.6317 36.232H88.7689C95.9719 37.6703 103.038 33.1498 104.684 26.0265L104.753 25.6155L107.291 13.2868C107.428 12.6703 107.017 12.0539 106.399 11.9169L100.225 10.684Z"
            fill="white"></path>
        <path
            d="M56.3204 7.53255L53.5078 8.21749L49.872 9.1079L42.7376 10.8202C42.4632 10.8887 42.2574 11.0257 42.1202 11.2312C41.983 11.4367 41.9144 11.6421 41.983 11.9161L47.7454 36.2997C47.814 36.5052 47.9512 36.7106 48.157 36.8476C48.3628 36.9846 48.6372 36.9846 48.9116 36.9161L55.0856 35.4778C55.36 35.4093 55.5658 35.2723 55.703 35.0668C55.8402 34.8613 55.9088 34.6558 55.8402 34.3819L54.5368 29.0394L51.6556 17.0531C51.5184 16.4367 51.8614 15.8202 52.5474 15.6147L57.5553 14.4504C59.0645 14.1079 60.6423 14.9298 61.1225 16.3682C61.6027 18.012 60.6423 19.6558 58.9959 20.0668L49.872 22.2586C49.3232 22.3956 48.9802 22.9435 49.1174 23.4915L50.2836 28.2175C50.4208 28.7654 50.9696 29.1079 51.5184 28.9709L60.6423 26.7791C66.0617 25.4778 69.4917 19.9983 68.1197 14.6558C66.8163 9.45036 61.6027 6.29968 56.3204 7.53255Z"
            fill="white"></path>
        <path
            d="M139.327 8.56155L142.414 33.4931C142.414 33.767 142.345 33.9725 142.208 34.178C142.002 34.3835 141.797 34.5205 141.522 34.5205L135.348 35.2739C135.074 35.3424 134.799 35.2739 134.456 35.1369C134.113 34.9999 133.839 34.8629 133.702 34.7259L122.931 22.4657C122.726 22.2602 122.588 22.2602 122.383 22.2602C122.177 22.3287 122.108 22.4657 122.177 22.7396L123.823 35.7533C123.823 36.0273 123.755 36.2328 123.617 36.4383C123.412 36.6437 123.206 36.7807 122.931 36.7807L116.62 37.5341C116.346 37.6026 116.071 37.5341 115.866 37.3972C115.66 37.2602 115.523 37.0547 115.523 36.7807L112.436 11.8492C112.436 11.5752 112.504 11.3698 112.641 11.1643C112.847 10.9588 113.053 10.8218 113.327 10.8218L119.639 10.0684C119.913 9.9999 120.187 10.0684 120.53 10.1369C120.873 10.2054 121.079 10.3424 121.285 10.5478L132.055 22.8081C132.261 23.0136 132.467 23.0136 132.604 23.0136C132.81 22.9451 132.878 22.8081 132.81 22.6026L131.163 9.58894C131.163 9.31497 131.232 9.10949 131.369 8.90401C131.575 8.69853 131.781 8.56155 132.055 8.56155L138.298 7.80812C138.572 7.73963 138.847 7.80812 139.052 7.94511C139.121 8.08209 139.258 8.28757 139.327 8.56155Z"
            fill="white"></path>
        <path
            d="M30.6639 12.1903C30.9383 12.3958 31.2813 12.6013 31.5557 12.8067C31.7615 13.0122 31.8987 13.2177 31.8987 13.4232C31.8987 13.6972 31.8301 13.9026 31.6929 14.1081L28.2629 18.0807C28.0571 18.2862 27.8513 18.3547 27.5769 18.4232C27.3025 18.4917 27.0281 18.4232 26.8223 18.2177C25.3817 17.3958 24.0783 16.7794 22.8435 16.3684C21.6087 16.0259 20.5111 15.8204 19.4135 15.752C19.0705 15.752 18.7275 15.752 18.3159 15.752C17.9043 15.752 17.4927 15.752 17.1497 15.8889C16.8067 15.9574 16.4637 16.0944 16.2579 16.2999C15.9835 16.5054 15.9149 16.7794 15.8463 17.1218C15.8463 17.4643 16.1207 17.8067 16.6695 18.0807C17.2183 18.3547 17.9043 18.6287 18.6589 18.8341C19.4135 19.0396 20.1681 19.2451 20.8541 19.3821C21.5401 19.5191 22.0203 19.5876 22.2261 19.6561C23.2551 19.8615 24.3527 20.1355 25.5189 20.5465C26.6851 20.8889 27.8513 21.4369 28.8803 22.1218C29.9093 22.8067 30.8011 23.6972 31.4185 24.7246C32.1045 25.8204 32.3789 27.1218 32.3789 28.6972C32.3103 30.1355 31.9673 31.4369 31.3499 32.4643C30.8011 33.4232 29.9093 34.2451 28.8117 34.93C27.7141 35.5465 26.4107 36.0259 24.9701 36.2999C23.4609 36.5739 21.8145 36.7109 20.0309 36.6424C18.5903 36.5739 17.2183 36.4369 15.9149 36.1629C14.68 35.8889 13.5138 35.5465 12.4162 35.204C11.3186 34.7931 10.3582 34.3136 9.39782 33.7657C8.43741 33.2177 7.61421 32.6698 6.8596 32.0533C6.6538 31.9163 6.5166 31.7109 6.5166 31.4369C6.5166 31.1629 6.5852 30.9574 6.7224 30.752L10.1524 26.7794C10.3582 26.5739 10.564 26.5054 10.8384 26.4369C11.1128 26.3684 11.3872 26.4369 11.593 26.5739C13.1022 27.4643 14.5428 28.2177 16.0521 28.7657C17.5613 29.3136 18.9333 29.5876 20.2367 29.6561C21.4715 29.7246 22.4319 29.5876 23.1179 29.3136C23.8039 29.0396 24.1469 28.5602 24.1469 27.9437C24.1469 27.6013 24.0097 27.3958 23.7353 27.1903C23.4609 26.9848 23.1179 26.8478 22.6377 26.7109C22.1575 26.5739 21.6087 26.4369 20.9913 26.3684C20.3739 26.2999 19.7565 26.1629 19.0705 26.0259C18.4531 25.8889 17.6985 25.752 16.8753 25.615C16.0521 25.478 15.2288 25.204 14.337 24.93C13.4452 24.6561 12.622 24.3136 11.7988 23.8341C10.9756 23.4232 10.221 22.8752 9.53502 22.2588C8.84901 21.6424 8.36881 20.8889 7.95721 19.9985C7.54561 19.1081 7.40841 18.1492 7.47701 16.9848C7.54561 15.2725 7.95721 13.9026 8.78041 12.8752C9.60362 11.7794 10.564 10.9574 11.7988 10.341C12.965 9.72456 14.337 9.3136 15.7777 9.10812C17.2183 8.90264 18.6589 8.83414 19.9623 8.90264C22.3633 8.97113 24.4213 9.38209 26.2735 10.067C27.7827 10.5465 29.2233 11.2999 30.6639 12.1903Z"
            fill="white"></path>
    </g>
    <defs>
        <clipPath id="clip0_4136_20056">
            <rect width="149" height="45" fill="white"></rect>
        </clipPath>
    </defs>
</svg>